# xmcd
#
# Track frame offsets:
#	150
#	12195
#	24590
#	41428
#	58610
#	71262
#	92813
#	103205
#	132279
#	143605
#	150556
#	156617
#	165557
#	185194
#
# Disc length: 2677 seconds
#
# Revision: 1
# Processed by: cddbd v1.5.2PL0 Copyright (c) Steve Scherf et al.
# Submitted via: audiograbber 1.83.01
#
DISCID=ba0a730e
DTITLE=The Enemy Within - Death Blues
DYEAR=1999
DGENRE=Blues
TTITLE0=Monkey Man
TTITLE1=Death Gonna Get You
TTITLE2=Burial At Sea
TTITLE3=Water Of Fire
TTITLE4=So Bad The Blues
TTITLE5=Born To Suffer
TTITLE6=Pig Memorial
TTITLE7=Since I Am Dying
TTITLE8=How Happy We Will Be
TTITLE9=Walk The Plank
TTITLE10=Live To Die
TTITLE11=Marwnad Yr Ehedydd
TTITLE12=Blue Slate Blues
TTITLE13=Chinese White Boy
EXTD=
EXTT0=
EXTT1=
EXTT2=
EXTT3=
EXTT4=
EXTT5=
EXTT6=
EXTT7=
EXTT8=
EXTT9=
EXTT10=
EXTT11=
EXTT12=
EXTT13=
PLAYORDER=
